<svg xmlns="http://www.w3.org/2000/svg" width="368" height="126" fill="none" viewBox="0 0 368 126"><rect width="358" height="85" x="10" fill="#FF7878" rx="10"/><g filter="url(#filter0_d_52_42)"><path fill="#FF7878" d="M-26.1456 115.337C-26.1456 115.337 14.3386 87.5962 16.9295 86.0481C19.5204 84.5 54.5204 57.1925 54.5204 57.1925L34.8116 36.7748C34.8116 36.7748 7.45633 70.6575 6.48835 74.3288C5.52038 78 -26.1456 115.337 -26.1456 115.337Z"/></g><path fill="#000" d="M33.095 50.315C32.2083 50.315 31.5317 50.07 31.065 49.58C30.5983 49.09 30.365 48.4017 30.365 47.515V29.805H24.17C23.4467 29.805 22.8867 29.6067 22.49 29.21C22.0933 28.8133 21.895 28.265 21.895 27.565C21.895 26.8417 22.0933 26.2933 22.49 25.92C22.8867 25.5233 23.4467 25.325 24.17 25.325H41.985C42.7083 25.325 43.2683 25.5233 43.665 25.92C44.0617 26.2933 44.26 26.8417 44.26 27.565C44.26 28.265 44.0617 28.8133 43.665 29.21C43.2683 29.6067 42.7083 29.805 41.985 29.805H35.79V47.515C35.79 48.4017 35.5567 49.09 35.09 49.58C34.6467 50.07 33.9817 50.315 33.095 50.315ZM46.1057 50.315C45.219 50.315 44.5424 50.0817 44.0757 49.615C43.609 49.1483 43.3757 48.4833 43.3757 47.62V35.195C43.3757 34.3317 43.5974 33.6783 44.0407 33.235C44.5074 32.7683 45.149 32.535 45.9657 32.535C46.8057 32.535 47.4474 32.7683 47.8907 33.235C48.334 33.6783 48.5557 34.3317 48.5557 35.195V37.015H48.2057C48.4857 35.615 49.104 34.53 50.0607 33.76C51.0174 32.99 52.254 32.5583 53.7707 32.465C54.354 32.4183 54.7974 32.57 55.1007 32.92C55.4274 33.2467 55.6024 33.795 55.6257 34.565C55.6724 35.2883 55.5207 35.86 55.1707 36.28C54.844 36.7 54.284 36.9567 53.4907 37.05L52.6857 37.12C51.3557 37.2367 50.364 37.6217 49.7107 38.275C49.0807 38.9283 48.7657 39.8733 48.7657 41.11V47.62C48.7657 48.4833 48.5324 49.1483 48.0657 49.615C47.6224 50.0817 46.969 50.315 46.1057 50.315ZM63.4386 50.385C62.1786 50.385 61.047 50.14 60.0436 49.65C59.0403 49.16 58.2586 48.495 57.6986 47.655C57.1386 46.815 56.8586 45.87 56.8586 44.82C56.8586 43.56 57.1853 42.5683 57.8386 41.845C58.492 41.0983 59.5536 40.5733 61.0236 40.27C62.4936 39.9433 64.442 39.78 66.8686 39.78H68.7236V42.51H66.9036C65.7136 42.51 64.7453 42.58 63.9986 42.72C63.2753 42.8367 62.7503 43.0467 62.4236 43.35C62.1203 43.6533 61.9686 44.0733 61.9686 44.61C61.9686 45.2633 62.1903 45.8 62.6336 46.22C63.1003 46.64 63.7653 46.85 64.6286 46.85C65.3053 46.85 65.9003 46.6983 66.4136 46.395C66.9503 46.0683 67.3703 45.6367 67.6736 45.1C67.977 44.54 68.1286 43.91 68.1286 43.21V39.185C68.1286 38.1583 67.8953 37.435 67.4286 37.015C66.962 36.5717 66.1686 36.35 65.0486 36.35C64.4186 36.35 63.7303 36.4317 62.9836 36.595C62.2603 36.735 61.4553 36.98 60.5686 37.33C60.0553 37.5633 59.6003 37.6217 59.2036 37.505C58.807 37.365 58.5036 37.1317 58.2936 36.805C58.0836 36.455 57.9786 36.0817 57.9786 35.685C57.9786 35.265 58.0953 34.8683 58.3286 34.495C58.562 34.0983 58.947 33.8067 59.4836 33.62C60.5803 33.1767 61.607 32.8733 62.5636 32.71C63.5436 32.5467 64.442 32.465 65.2586 32.465C67.0553 32.465 68.5253 32.7333 69.6686 33.27C70.8353 33.7833 71.7103 34.5883 72.2936 35.685C72.877 36.7583 73.1686 38.1467 73.1686 39.85V47.62C73.1686 48.4833 72.9586 49.1483 72.5386 49.615C72.1186 50.0817 71.512 50.315 70.7186 50.315C69.9253 50.315 69.307 50.0817 68.8636 49.615C68.4436 49.1483 68.2336 48.4833 68.2336 47.62V46.325L68.4786 46.535C68.3386 47.3283 68.0353 48.0167 67.5686 48.6C67.1253 49.16 66.5536 49.6033 65.8536 49.93C65.1536 50.2333 64.3486 50.385 63.4386 50.385ZM79.7711 50.315C78.9077 50.315 78.2427 50.0817 77.7761 49.615C77.3327 49.1483 77.1111 48.4833 77.1111 47.62V35.195C77.1111 34.3317 77.3327 33.6783 77.7761 33.235C78.2427 32.7683 78.8844 32.535 79.7011 32.535C80.5411 32.535 81.1827 32.7683 81.6261 33.235C82.0694 33.6783 82.2911 34.3317 82.2911 35.195V37.19L81.9061 36.035C82.4427 34.8917 83.2361 34.0167 84.2861 33.41C85.3594 32.78 86.5727 32.465 87.9261 32.465C89.3027 32.465 90.4344 32.7333 91.3211 33.27C92.2077 33.7833 92.8727 34.5767 93.3161 35.65C93.7594 36.7 93.9811 38.0417 93.9811 39.675V47.62C93.9811 48.4833 93.7477 49.1483 93.2811 49.615C92.8377 50.0817 92.1844 50.315 91.3211 50.315C90.4811 50.315 89.8277 50.0817 89.3611 49.615C88.9177 49.1483 88.6961 48.4833 88.6961 47.62V39.92C88.6961 38.73 88.4744 37.8783 88.0311 37.365C87.6111 36.8283 86.9577 36.56 86.0711 36.56C84.9511 36.56 84.0527 36.91 83.3761 37.61C82.7227 38.31 82.3961 39.2433 82.3961 40.41V47.62C82.3961 49.4167 81.5211 50.315 79.7711 50.315ZM104.506 50.385C103.48 50.385 102.418 50.2917 101.321 50.105C100.248 49.9183 99.2682 49.6033 98.3815 49.16C97.9148 48.9267 97.5765 48.635 97.3665 48.285C97.1798 47.9117 97.0982 47.5383 97.1215 47.165C97.1448 46.7917 97.2615 46.4533 97.4715 46.15C97.7048 45.8467 97.9965 45.6483 98.3465 45.555C98.7198 45.4383 99.1282 45.4733 99.5715 45.66C100.528 46.0567 101.403 46.3367 102.196 46.5C102.99 46.6633 103.771 46.745 104.541 46.745C105.545 46.745 106.268 46.5933 106.711 46.29C107.178 45.9633 107.411 45.5433 107.411 45.03C107.411 44.5633 107.26 44.2133 106.956 43.98C106.653 43.7467 106.21 43.5833 105.626 43.49L101.951 42.825C100.505 42.5683 99.3848 42.0433 98.5915 41.25C97.8215 40.4333 97.4365 39.395 97.4365 38.135C97.4365 36.9683 97.7632 35.965 98.4165 35.125C99.0698 34.2617 99.9682 33.6083 101.111 33.165C102.278 32.6983 103.596 32.465 105.066 32.465C106.116 32.465 107.085 32.5583 107.971 32.745C108.858 32.9317 109.71 33.235 110.526 33.655C110.946 33.865 111.238 34.145 111.401 34.495C111.588 34.845 111.646 35.2067 111.576 35.58C111.53 35.9533 111.39 36.2917 111.156 36.595C110.923 36.8983 110.62 37.0967 110.246 37.19C109.896 37.2833 109.488 37.2367 109.021 37.05C108.275 36.7 107.586 36.455 106.956 36.315C106.326 36.1517 105.72 36.07 105.136 36.07C104.086 36.07 103.328 36.245 102.861 36.595C102.395 36.9217 102.161 37.3417 102.161 37.855C102.161 38.2517 102.29 38.59 102.546 38.87C102.826 39.1267 103.246 39.3017 103.806 39.395L107.481 40.06C108.998 40.3167 110.153 40.83 110.946 41.6C111.74 42.3467 112.136 43.3733 112.136 44.68C112.136 46.4533 111.436 47.8533 110.036 48.88C108.66 49.8833 106.816 50.385 104.506 50.385ZM121.348 50.385C119.271 50.385 117.72 49.8133 116.693 48.67C115.666 47.5033 115.153 45.7767 115.153 43.49V27.705C115.153 26.8183 115.375 26.1533 115.818 25.71C116.285 25.2433 116.95 25.01 117.813 25.01C118.653 25.01 119.295 25.2433 119.738 25.71C120.205 26.1533 120.438 26.8183 120.438 27.705V43.28C120.438 44.2367 120.636 44.9483 121.033 45.415C121.453 45.8583 122.001 46.08 122.678 46.08C122.865 46.08 123.04 46.0683 123.203 46.045C123.366 46.0217 123.541 46.01 123.728 46.01C124.101 45.9633 124.358 46.08 124.498 46.36C124.661 46.6167 124.743 47.1417 124.743 47.935C124.743 48.635 124.603 49.1717 124.323 49.545C124.043 49.895 123.611 50.1283 123.028 50.245C122.795 50.2683 122.526 50.2917 122.223 50.315C121.92 50.3617 121.628 50.385 121.348 50.385ZM132.618 50.385C131.358 50.385 130.227 50.14 129.223 49.65C128.22 49.16 127.438 48.495 126.878 47.655C126.318 46.815 126.038 45.87 126.038 44.82C126.038 43.56 126.365 42.5683 127.018 41.845C127.672 41.0983 128.733 40.5733 130.203 40.27C131.673 39.9433 133.622 39.78 136.048 39.78H137.903V42.51H136.083C134.893 42.51 133.925 42.58 133.178 42.72C132.455 42.8367 131.93 43.0467 131.603 43.35C131.3 43.6533 131.148 44.0733 131.148 44.61C131.148 45.2633 131.37 45.8 131.813 46.22C132.28 46.64 132.945 46.85 133.808 46.85C134.485 46.85 135.08 46.6983 135.593 46.395C136.13 46.0683 136.55 45.6367 136.853 45.1C137.157 44.54 137.308 43.91 137.308 43.21V39.185C137.308 38.1583 137.075 37.435 136.608 37.015C136.142 36.5717 135.348 36.35 134.228 36.35C133.598 36.35 132.91 36.4317 132.163 36.595C131.44 36.735 130.635 36.98 129.748 37.33C129.235 37.5633 128.78 37.6217 128.383 37.505C127.987 37.365 127.683 37.1317 127.473 36.805C127.263 36.455 127.158 36.0817 127.158 35.685C127.158 35.265 127.275 34.8683 127.508 34.495C127.742 34.0983 128.127 33.8067 128.663 33.62C129.76 33.1767 130.787 32.8733 131.743 32.71C132.723 32.5467 133.622 32.465 134.438 32.465C136.235 32.465 137.705 32.7333 138.848 33.27C140.015 33.7833 140.89 34.5883 141.473 35.685C142.057 36.7583 142.348 38.1467 142.348 39.85V47.62C142.348 48.4833 142.138 49.1483 141.718 49.615C141.298 50.0817 140.692 50.315 139.898 50.315C139.105 50.315 138.487 50.0817 138.043 49.615C137.623 49.1483 137.413 48.4833 137.413 47.62V46.325L137.658 46.535C137.518 47.3283 137.215 48.0167 136.748 48.6C136.305 49.16 135.733 49.6033 135.033 49.93C134.333 50.2333 133.528 50.385 132.618 50.385ZM154.726 50.385C153.116 50.385 151.762 50.1167 150.666 49.58C149.592 49.0433 148.787 48.2617 148.251 47.235C147.737 46.2083 147.481 44.9133 147.481 43.35V36.77H146.011C145.357 36.77 144.844 36.595 144.471 36.245C144.121 35.895 143.946 35.4167 143.946 34.81C143.946 34.1567 144.121 33.6667 144.471 33.34C144.844 32.99 145.357 32.815 146.011 32.815H147.481V30.155C147.481 29.2683 147.714 28.6033 148.181 28.16C148.647 27.6933 149.301 27.46 150.141 27.46C151.004 27.46 151.657 27.6933 152.101 28.16C152.544 28.6033 152.766 29.2683 152.766 30.155V32.815H156.091C156.744 32.815 157.246 32.99 157.596 33.34C157.946 33.6667 158.121 34.1567 158.121 34.81C158.121 35.4167 157.946 35.895 157.596 36.245C157.246 36.595 156.744 36.77 156.091 36.77H152.766V43.14C152.766 44.12 152.987 44.855 153.431 45.345C153.897 45.835 154.632 46.08 155.636 46.08C155.986 46.08 156.312 46.045 156.616 45.975C156.919 45.905 157.199 45.8583 157.456 45.835C157.782 45.8117 158.051 45.9167 158.261 46.15C158.471 46.36 158.576 46.8383 158.576 47.585C158.576 48.145 158.482 48.635 158.296 49.055C158.109 49.475 157.782 49.7783 157.316 49.965C157.012 50.0817 156.592 50.175 156.056 50.245C155.542 50.3383 155.099 50.385 154.726 50.385ZM163.648 50.28C162.785 50.28 162.12 50.035 161.653 49.545C161.21 49.0317 160.988 48.32 160.988 47.41V35.44C160.988 34.5067 161.21 33.795 161.653 33.305C162.12 32.7917 162.785 32.535 163.648 32.535C164.488 32.535 165.13 32.7917 165.573 33.305C166.04 33.795 166.273 34.5067 166.273 35.44V47.41C166.273 48.32 166.051 49.0317 165.608 49.545C165.165 50.035 164.511 50.28 163.648 50.28ZM163.648 29.665C162.668 29.665 161.91 29.4433 161.373 29C160.86 28.5333 160.603 27.88 160.603 27.04C160.603 26.1767 160.86 25.5233 161.373 25.08C161.91 24.6133 162.668 24.38 163.648 24.38C164.628 24.38 165.375 24.6133 165.888 25.08C166.401 25.5233 166.658 26.1767 166.658 27.04C166.658 27.88 166.401 28.5333 165.888 29C165.375 29.4433 164.628 29.665 163.648 29.665ZM178.613 50.385C176.77 50.385 175.16 50.0233 173.783 49.3C172.43 48.5767 171.38 47.5383 170.633 46.185C169.887 44.8317 169.513 43.2333 169.513 41.39C169.513 40.0133 169.723 38.7767 170.143 37.68C170.563 36.5833 171.17 35.65 171.963 34.88C172.78 34.0867 173.748 33.4917 174.868 33.095C175.988 32.675 177.237 32.465 178.613 32.465C180.457 32.465 182.055 32.8267 183.408 33.55C184.785 34.2733 185.847 35.3 186.593 36.63C187.363 37.96 187.748 39.5467 187.748 41.39C187.748 42.79 187.527 44.0383 187.083 45.135C186.663 46.2317 186.057 47.1767 185.263 47.97C184.47 48.7633 183.502 49.37 182.358 49.79C181.238 50.1867 179.99 50.385 178.613 50.385ZM178.613 46.43C179.383 46.43 180.048 46.2433 180.608 45.87C181.168 45.4967 181.612 44.9483 181.938 44.225C182.265 43.4783 182.428 42.5333 182.428 41.39C182.428 39.6867 182.078 38.4383 181.378 37.645C180.678 36.8283 179.757 36.42 178.613 36.42C177.867 36.42 177.202 36.595 176.618 36.945C176.058 37.295 175.615 37.8433 175.288 38.59C174.985 39.3133 174.833 40.2467 174.833 41.39C174.833 43.0933 175.183 44.365 175.883 45.205C176.583 46.0217 177.493 46.43 178.613 46.43ZM193.624 50.315C192.76 50.315 192.095 50.0817 191.629 49.615C191.185 49.1483 190.964 48.4833 190.964 47.62V35.195C190.964 34.3317 191.185 33.6783 191.629 33.235C192.095 32.7683 192.737 32.535 193.554 32.535C194.394 32.535 195.035 32.7683 195.479 33.235C195.922 33.6783 196.144 34.3317 196.144 35.195V37.19L195.759 36.035C196.295 34.8917 197.089 34.0167 198.139 33.41C199.212 32.78 200.425 32.465 201.779 32.465C203.155 32.465 204.287 32.7333 205.174 33.27C206.06 33.7833 206.725 34.5767 207.169 35.65C207.612 36.7 207.834 38.0417 207.834 39.675V47.62C207.834 48.4833 207.6 49.1483 207.134 49.615C206.69 50.0817 206.037 50.315 205.174 50.315C204.334 50.315 203.68 50.0817 203.214 49.615C202.77 49.1483 202.549 48.4833 202.549 47.62V39.92C202.549 38.73 202.327 37.8783 201.884 37.365C201.464 36.8283 200.81 36.56 199.924 36.56C198.804 36.56 197.905 36.91 197.229 37.61C196.575 38.31 196.249 39.2433 196.249 40.41V47.62C196.249 49.4167 195.374 50.315 193.624 50.315ZM224.739 50.315C223.853 50.315 223.176 50.07 222.709 49.58C222.243 49.09 222.009 48.4017 222.009 47.515V27.81C222.009 26.9233 222.243 26.235 222.709 25.745C223.176 25.255 223.853 25.01 224.739 25.01C225.603 25.01 226.268 25.255 226.734 25.745C227.201 26.235 227.434 26.9233 227.434 27.81V35.23H238.914V27.81C238.914 26.9233 239.148 26.235 239.614 25.745C240.081 25.255 240.746 25.01 241.609 25.01C242.496 25.01 243.173 25.255 243.639 25.745C244.106 26.235 244.339 26.9233 244.339 27.81V47.515C244.339 48.4017 244.106 49.09 243.639 49.58C243.173 50.07 242.496 50.315 241.609 50.315C240.746 50.315 240.081 50.07 239.614 49.58C239.148 49.09 238.914 48.4017 238.914 47.515V39.745H227.434V47.515C227.434 48.4017 227.201 49.09 226.734 49.58C226.291 50.07 225.626 50.315 224.739 50.315ZM251.524 50.28C250.661 50.28 249.996 50.035 249.529 49.545C249.086 49.0317 248.864 48.32 248.864 47.41V35.44C248.864 34.5067 249.086 33.795 249.529 33.305C249.996 32.7917 250.661 32.535 251.524 32.535C252.364 32.535 253.006 32.7917 253.449 33.305C253.916 33.795 254.149 34.5067 254.149 35.44V47.41C254.149 48.32 253.927 49.0317 253.484 49.545C253.041 50.035 252.387 50.28 251.524 50.28ZM251.524 29.665C250.544 29.665 249.786 29.4433 249.249 29C248.736 28.5333 248.479 27.88 248.479 27.04C248.479 26.1767 248.736 25.5233 249.249 25.08C249.786 24.6133 250.544 24.38 251.524 24.38C252.504 24.38 253.251 24.6133 253.764 25.08C254.277 25.5233 254.534 26.1767 254.534 27.04C254.534 27.88 254.277 28.5333 253.764 29C253.251 29.4433 252.504 29.665 251.524 29.665ZM264.809 50.385C263.783 50.385 262.721 50.2917 261.624 50.105C260.551 49.9183 259.571 49.6033 258.684 49.16C258.218 48.9267 257.879 48.635 257.669 48.285C257.483 47.9117 257.401 47.5383 257.424 47.165C257.448 46.7917 257.564 46.4533 257.774 46.15C258.008 45.8467 258.299 45.6483 258.649 45.555C259.023 45.4383 259.431 45.4733 259.874 45.66C260.831 46.0567 261.706 46.3367 262.499 46.5C263.293 46.6633 264.074 46.745 264.844 46.745C265.848 46.745 266.571 46.5933 267.014 46.29C267.481 45.9633 267.714 45.5433 267.714 45.03C267.714 44.5633 267.563 44.2133 267.259 43.98C266.956 43.7467 266.513 43.5833 265.929 43.49L262.254 42.825C260.808 42.5683 259.688 42.0433 258.894 41.25C258.124 40.4333 257.739 39.395 257.739 38.135C257.739 36.9683 258.066 35.965 258.719 35.125C259.373 34.2617 260.271 33.6083 261.414 33.165C262.581 32.6983 263.899 32.465 265.369 32.465C266.419 32.465 267.388 32.5583 268.274 32.745C269.161 32.9317 270.013 33.235 270.829 33.655C271.249 33.865 271.541 34.145 271.704 34.495C271.891 34.845 271.949 35.2067 271.879 35.58C271.833 35.9533 271.693 36.2917 271.459 36.595C271.226 36.8983 270.923 37.0967 270.549 37.19C270.199 37.2833 269.791 37.2367 269.324 37.05C268.578 36.7 267.889 36.455 267.259 36.315C266.629 36.1517 266.023 36.07 265.439 36.07C264.389 36.07 263.631 36.245 263.164 36.595C262.698 36.9217 262.464 37.3417 262.464 37.855C262.464 38.2517 262.593 38.59 262.849 38.87C263.129 39.1267 263.549 39.3017 264.109 39.395L267.784 40.06C269.301 40.3167 270.456 40.83 271.249 41.6C272.043 42.3467 272.439 43.3733 272.439 44.68C272.439 46.4533 271.739 47.8533 270.339 48.88C268.963 49.8833 267.119 50.385 264.809 50.385ZM283.72 50.385C282.11 50.385 280.757 50.1167 279.66 49.58C278.587 49.0433 277.782 48.2617 277.245 47.235C276.732 46.2083 276.475 44.9133 276.475 43.35V36.77H275.005C274.352 36.77 273.838 36.595 273.465 36.245C273.115 35.895 272.94 35.4167 272.94 34.81C272.94 34.1567 273.115 33.6667 273.465 33.34C273.838 32.99 274.352 32.815 275.005 32.815H276.475V30.155C276.475 29.2683 276.708 28.6033 277.175 28.16C277.642 27.6933 278.295 27.46 279.135 27.46C279.998 27.46 280.652 27.6933 281.095 28.16C281.538 28.6033 281.76 29.2683 281.76 30.155V32.815H285.085C285.738 32.815 286.24 32.99 286.59 33.34C286.94 33.6667 287.115 34.1567 287.115 34.81C287.115 35.4167 286.94 35.895 286.59 36.245C286.24 36.595 285.738 36.77 285.085 36.77H281.76V43.14C281.76 44.12 281.982 44.855 282.425 45.345C282.892 45.835 283.627 46.08 284.63 46.08C284.98 46.08 285.307 46.045 285.61 45.975C285.913 45.905 286.193 45.8583 286.45 45.835C286.777 45.8117 287.045 45.9167 287.255 46.15C287.465 46.36 287.57 46.8383 287.57 47.585C287.57 48.145 287.477 48.635 287.29 49.055C287.103 49.475 286.777 49.7783 286.31 49.965C286.007 50.0817 285.587 50.175 285.05 50.245C284.537 50.3383 284.093 50.385 283.72 50.385ZM297.524 50.385C295.681 50.385 294.071 50.0233 292.694 49.3C291.341 48.5767 290.291 47.5383 289.544 46.185C288.798 44.8317 288.424 43.2333 288.424 41.39C288.424 40.0133 288.634 38.7767 289.054 37.68C289.474 36.5833 290.081 35.65 290.874 34.88C291.691 34.0867 292.659 33.4917 293.779 33.095C294.899 32.675 296.148 32.465 297.524 32.465C299.368 32.465 300.966 32.8267 302.319 33.55C303.696 34.2733 304.758 35.3 305.504 36.63C306.274 37.96 306.659 39.5467 306.659 41.39C306.659 42.79 306.438 44.0383 305.994 45.135C305.574 46.2317 304.968 47.1767 304.174 47.97C303.381 48.7633 302.413 49.37 301.269 49.79C300.149 50.1867 298.901 50.385 297.524 50.385ZM297.524 46.43C298.294 46.43 298.959 46.2433 299.519 45.87C300.079 45.4967 300.523 44.9483 300.849 44.225C301.176 43.4783 301.339 42.5333 301.339 41.39C301.339 39.6867 300.989 38.4383 300.289 37.645C299.589 36.8283 298.668 36.42 297.524 36.42C296.778 36.42 296.113 36.595 295.529 36.945C294.969 37.295 294.526 37.8433 294.199 38.59C293.896 39.3133 293.744 40.2467 293.744 41.39C293.744 43.0933 294.094 44.365 294.794 45.205C295.494 46.0217 296.404 46.43 297.524 46.43ZM312.605 50.315C311.718 50.315 311.041 50.0817 310.575 49.615C310.108 49.1483 309.875 48.4833 309.875 47.62V35.195C309.875 34.3317 310.096 33.6783 310.54 33.235C311.006 32.7683 311.648 32.535 312.465 32.535C313.305 32.535 313.946 32.7683 314.39 33.235C314.833 33.6783 315.055 34.3317 315.055 35.195V37.015H314.705C314.985 35.615 315.603 34.53 316.56 33.76C317.516 32.99 318.753 32.5583 320.27 32.465C320.853 32.4183 321.296 32.57 321.6 32.92C321.926 33.2467 322.101 33.795 322.125 34.565C322.171 35.2883 322.02 35.86 321.67 36.28C321.343 36.7 320.783 36.9567 319.99 37.05L319.185 37.12C317.855 37.2367 316.863 37.6217 316.21 38.275C315.58 38.9283 315.265 39.8733 315.265 41.11V47.62C315.265 48.4833 315.031 49.1483 314.565 49.615C314.121 50.0817 313.468 50.315 312.605 50.315ZM330.048 56.615C329.441 56.615 328.94 56.4517 328.543 56.125C328.146 55.7983 327.913 55.3667 327.843 54.83C327.773 54.3167 327.866 53.7683 328.123 53.185L330.468 48.005V50.175L324.273 35.965C324.04 35.3583 323.958 34.7983 324.028 34.285C324.121 33.7483 324.378 33.3283 324.798 33.025C325.241 32.6983 325.848 32.535 326.618 32.535C327.248 32.535 327.75 32.6867 328.123 32.99C328.52 33.27 328.881 33.8183 329.208 34.635L333.338 45.135H332.218L336.488 34.6C336.815 33.8067 337.176 33.27 337.573 32.99C337.993 32.6867 338.553 32.535 339.253 32.535C339.86 32.535 340.338 32.6983 340.688 33.025C341.061 33.3283 341.283 33.7367 341.353 34.25C341.446 34.7633 341.353 35.3233 341.073 35.93L332.848 54.585C332.498 55.3783 332.101 55.915 331.658 56.195C331.238 56.475 330.701 56.615 330.048 56.615Z"/><defs><filter id="filter0_d_52_42" width="80.666" height="78.562" x="-26.146" y="36.775" color-interpolation-filters="sRGB" filterUnits="userSpaceOnUse"><feFlood flood-opacity="0" result="BackgroundImageFix"/><feColorMatrix in="SourceAlpha" result="hardAlpha" type="matrix" values="0 0 0 0 0 0 0 0 0 0 0 0 0 0 0 0 0 0 127 0"/><feOffset/><feComposite in2="hardAlpha" operator="out"/><feColorMatrix type="matrix" values="0 0 0 0 0 0 0 0 0 0 0 0 0 0 0 0 0 0 0.25 0"/><feBlend in2="BackgroundImageFix" mode="normal" result="effect1_dropShadow_52_42"/><feBlend in="SourceGraphic" in2="effect1_dropShadow_52_42" mode="normal" result="shape"/></filter></defs></svg>