<svg xmlns="http://www.w3.org/2000/svg" width="53" height="48" fill="none" viewBox="0 0 53 48"><path fill="#000" fill-rule="evenodd" d="M52.625 24C52.625 10.8372 40.9284 0.166656 26.5 0.166656C12.0716 0.166656 0.375 10.8372 0.375 24C0.375 37.1628 12.0716 47.8333 26.5 47.8333C40.9284 47.8333 52.625 37.1628 52.625 24ZM6.65051 16.7514C8.81978 11.812 13.1401 7.87067 18.5545 5.89168C17.2842 8.12887 16.2876 10.9182 15.616 14.0707C12.1603 14.6834 9.10282 15.5925 6.65051 16.7514ZM34.4455 5.89168C35.7158 8.12887 36.7124 10.9182 37.384 14.0707C40.8397 14.6834 43.8972 15.5925 46.3495 16.7514C44.1802 11.812 39.8599 7.87067 34.4455 5.89168ZM5.125 24C5.125 22.0516 8.99312 19.9375 14.8969 18.6661C14.7177 20.3834 14.625 22.1692 14.625 24C14.625 25.8308 14.7177 27.6166 14.8969 29.3339C8.99312 28.0625 5.125 25.9484 5.125 24ZM38.375 24C38.375 25.8308 38.2823 27.6166 38.1031 29.3339C44.0069 28.0625 47.875 25.9484 47.875 24C47.875 22.0516 44.0069 19.9375 38.1031 18.6661C38.2823 20.3834 38.375 22.1692 38.375 24ZM6.65051 31.2485C9.10281 32.4074 12.1603 33.3165 15.616 33.9293C16.2876 37.0818 17.2842 39.8711 18.5545 42.1083C13.1401 40.1293 8.81978 36.1879 6.65051 31.2485ZM37.384 33.9293C36.7124 37.0818 35.7158 39.8711 34.4455 42.1083C39.8599 40.1293 44.1802 36.1879 46.3495 31.2485C43.8972 32.4074 40.8397 33.3165 37.384 33.9293ZM19.375 24C19.375 21.8544 19.5225 19.796 19.785 17.874C21.8918 17.6346 24.1481 17.5 26.5 17.5C28.8519 17.5 31.1082 17.6346 33.215 17.874C33.4775 19.796 33.625 21.8544 33.625 24C33.625 26.1455 33.4775 28.2039 33.215 30.126C31.1082 30.3654 28.8519 30.5 26.5 30.5C24.1481 30.5 21.8918 30.3654 19.785 30.126C19.5225 28.2039 19.375 26.1455 19.375 24ZM20.6532 34.5853C22.0469 39.9712 24.3643 43.5 26.5 43.5C28.6357 43.5 30.9531 39.9712 32.3468 34.5853C30.4643 34.7487 28.5069 34.8333 26.5 34.8333C24.4931 34.8333 22.5357 34.7487 20.6532 34.5853ZM26.5 4.49999C24.3643 4.49999 22.0469 8.0288 20.6532 13.4147C22.5357 13.2513 24.4931 13.1667 26.5 13.1667C28.5069 13.1667 30.4643 13.2513 32.3468 13.4147C30.9531 8.0288 28.6357 4.49999 26.5 4.49999Z" clip-rule="evenodd"/></svg>